<svg width="1024" height="1024" viewBox="0 0 1024 1024" fill="none" xmlns="http://www.w3.org/2000/svg">
<rect width="1024" height="1024" fill="url(#paint0_linear_2596_50514)"/>
<path fill-rule="evenodd" clip-rule="evenodd" d="M131 530.002C131 320.187 301.658 150 512.133 150C722.529 150 893.186 320.187 893.105 530.002C893.105 682.066 803.456 813.27 673.988 874L608.891 698.658C667.445 665.071 706.941 602.167 706.941 530.002C706.941 422.718 619.633 335.651 512.053 335.651C404.472 335.651 317.165 422.638 317.165 530.002C317.165 602.167 356.66 665.151 415.215 698.658L350.118 874C220.65 813.27 131 682.146 131 530.002ZM512.131 679.571C539.752 579.86 562.125 557.549 662.112 530.003C562.125 502.459 539.752 480.148 512.131 380.435C484.508 480.148 462.136 502.459 362.148 530.003C462.136 557.549 484.508 579.86 512.131 679.571Z" fill="white"/>
<defs>
<linearGradient id="paint0_linear_2596_50514" x1="811" y1="48.9997" x2="0.867132" y2="272.381" gradientUnits="userSpaceOnUse">
<stop stop-color="#F63190"/>
<stop offset="1" stop-color="#8927C6"/>
</linearGradient>
</defs>
</svg>
